HIERARCHY
ROOT Root
{
	OFFSET 0.00 0.00 0.00
	CHANNELS 6 Xposition Yposition Zposition Xrotation Yrotation Zrotation
	JOINT L_Femur
	{
		OFFSET 2.78527 0.00000 0.00000
		CHANNELS 3 Xrotation Yrotation Zrotation
		JOINT L_Tibia
		{
			OFFSET 0.00000 -16.41095 0.00000
			CHANNELS 3 Xrotation Yrotation Zrotation
			JOINT L_Foot
			{
				OFFSET 0.00000 -14.21163 0.00000
				CHANNELS 3 Xrotation Yrotation Zrotation
				JOINT L_Toe
				{
					OFFSET 0.00000 -1.60827 6.00215
					CHANNELS 3 Xrotation Yrotation Zrotation
					End Site
					{
						OFFSET 0.00000 0.00000 2.95275
					}
				}
			}
		}
	}
	JOINT R_Femur
	{
		OFFSET -2.78527 0.00000 0.00000
		CHANNELS 3 Xrotation Yrotation Zrotation
		JOINT R_Tibia
		{
			OFFSET 0.00000 -16.41095 0.00000
			CHANNELS 3 Xrotation Yrotation Zrotation
			JOINT R_Foot
			{
				OFFSET 0.00000 -14.21163 0.00000
				CHANNELS 3 Xrotation Yrotation Zrotation
				JOINT R_Toe
				{
					OFFSET 0.00000 -1.60827 6.00215
					CHANNELS 3 Xrotation Yrotation Zrotation
					End Site
					{
						OFFSET 0.00000 0.00000 2.95275
					}
				}
			}
		}
	}
	JOINT LowerBack
	{
		OFFSET 0.00000 0.03937 0.00000
		CHANNELS 3 Xrotation Yrotation Zrotation
		JOINT Thorax
		{
			OFFSET 0.00000 7.01329 0.00000
			CHANNELS 3 Xrotation Yrotation Zrotation
			JOINT Neck
			{
				OFFSET 0.00000 7.25825 0.00000
				CHANNELS 3 Xrotation Yrotation Zrotation
				JOINT Head
				{
					OFFSET 0.00000 5.63334 0.00000
					CHANNELS 3 Xrotation Yrotation Zrotation
					End Site
					{
						OFFSET 0.00000 4.52755 0.00000
					}
				}
			}
			JOINT L_Collar
			{
				OFFSET 0.00000 7.25825 0.00000
				CHANNELS 3 Xrotation Yrotation Zrotation
				JOINT L_Humerus
				{
					OFFSET 6.91821 -0.00003 0.00000
					CHANNELS 3 Xrotation Yrotation Zrotation
					JOINT L_Elbow
					{
						OFFSET 10.34006 -0.00004 0.00000
						CHANNELS 3 Xrotation Yrotation Zrotation
						JOINT L_Wrist
						{
							OFFSET 7.25554 -0.00003 0.00000
							CHANNELS 3 Xrotation Yrotation Zrotation
							JOINT L_Thumb
							{
								OFFSET 0.00000 0.00000 0.00000
								CHANNELS 3 Xrotation Yrotation Zrotation
								End Site
								{
									OFFSET 0.00000 0.00000 3.93700
								}
							}
							JOINT L_Wrist_End
							{
								OFFSET 3.93700 -0.00001 0.00000
								CHANNELS 3 Xrotation Yrotation Zrotation
							}
						}
					}
				}
			}
			JOINT R_Collar
			{
				OFFSET 0.00000 7.25825 0.00000
				CHANNELS 3 Xrotation Yrotation Zrotation
				JOINT R_Humerus
				{
					OFFSET -6.91821 -0.00003 0.00000
					CHANNELS 3 Xrotation Yrotation Zrotation
					JOINT R_Elbow
					{
						OFFSET -10.34006 -0.00004 0.00000
						CHANNELS 3 Xrotation Yrotation Zrotation
						JOINT R_Wrist
						{
							OFFSET -7.25554 -0.00003 0.00000
							CHANNELS 3 Xrotation Yrotation Zrotation
							JOINT R_Thumb
							{
								OFFSET 0.00000 0.00000 0.00000
								CHANNELS 3 Xrotation Yrotation Zrotation
								End Site
								{
									OFFSET 0.00000 0.00000 3.93700
								}
							}
							JOINT R_Wrist_End
							{
								OFFSET -5.39369 -0.00002 0.00000
								CHANNELS 3 Xrotation Yrotation Zrotation
							}
						}
					}
				}
			}
		}
	}
}
MOTION
Frames: 17
Frame Time: 0.066664
 -24.5356 32.8910 -3.2441 5.6719 -9.6685 -0.8169 -1.4381 26.7030 4.9111 3.7786 -0.0000 -0.0000 -9.8835 -11.3861 1.1908 -7.7564 0.0000 -0.0000 -3.1979 9.5206 -4.2937 3.8826 -0.0000 0.0000 -9.4802 9.3506 1.3387 -9.3536 0.0000 -0.0000 -4.0762 -1.6508 -10.8044 -0.5552 -1.5121 13.5964 -0.7035 -13.1136 3.7365 -25.6397 18.2422 19.0598 -6.0599 29.7047 21.7579 -21.3582 -10.9359 -24.2484 -0.0000 -7.5816 -0.0000 -8.9049 3.5186 -2.0813 -0.0000 -0.0000 0.0000 -0.0000 -0.0000 0.0000 -0.5849 -8.8352 -21.5929 -50.1460 -6.6512 34.9309 -0.0000 7.4292 0.0000 4.9402 1.5410 -14.0575 -0.0000 -0.0000 0.0000 -0.0000 -0.0000 0.0000
 -24.4824 32.8896 -3.2384 5.6465 -9.6555 -0.8338 -1.4092 26.6464 4.8277 3.8514 0.0000 -0.0000 -9.9736 -11.3479 1.1826 -7.7484 0.0000 -0.0000 -3.1564 9.5092 -4.3835 3.8640 -0.0000 0.0000 -9.4570 9.3488 1.3732 -9.3786 0.0000 -0.0000 -4.0899 -1.6230 -10.8067 -0.5705 -1.4923 13.5404 -0.5802 -13.3287 3.7441 -25.7612 18.3575 19.1668 -6.0960 29.6863 21.7979 -21.3793 -10.9922 -24.3427 -0.0000 -7.5167 -0.0000 -8.8686 3.4964 -2.0286 -0.0000 0.0000 -0.0000 -0.0000 0.0000 -0.0000 -0.5488 -8.8144 -21.5680 -50.1297 -6.6740 34.9273 -0.0000 7.5077 0.0000 5.0726 1.4338 -13.9639 -0.0000 -0.0000 0.0000 -0.0000 -0.0000 0.0000
 -24.4225 32.8895 -3.2300 5.5976 -9.6279 -0.8064 -1.3308 26.6005 4.6726 3.9319 0.0000 0.0000 -10.0402 -11.3378 1.3270 -7.7430 0.0000 -0.0000 -3.1021 9.2986 -4.5516 3.8701 -0.0000 0.0000 -9.4595 9.5548 1.5321 -9.3487 0.0000 -0.0000 -4.1247 -1.6084 -10.7858 -0.5671 -1.4930 13.4290 -0.5266 -13.6886 3.7788 -25.6983 18.7565 19.2036 -6.0790 29.6232 21.8324 -21.2185 -11.0183 -24.3448 -0.0000 -7.3937 -0.0000 -8.9056 3.3700 -2.0510 -0.0000 0.0000 -0.0000 -0.0000 0.0000 -0.0000 -0.5112 -8.7597 -21.5820 -50.0614 -6.6197 34.8879 -0.0000 7.5093 0.0000 5.0669 1.4232 -13.8992 -0.0000 0.0000 -0.0000 -0.0000 0.0000 -0.0000
 -24.3353 32.8884 -3.2187 5.5575 -9.4333 -0.6468 -1.1639 26.3924 4.3038 3.9761 0.0000 -0.0000 -10.0777 -11.3419 1.5707 -7.8262 0.0000 0.0000 -3.0062 8.6160 -4.9382 3.8083 -0.0000 -0.0000 -9.5048 10.0468 1.9633 -9.3665 0.0000 0.0000 -4.2165 -1.6244 -10.7373 -0.5205 -1.5469 13.0853 -0.4051 -14.6580 3.7706 -25.7819 19.5920 19.6646 -6.1377 29.4376 21.9335 -21.0668 -10.9727 -24.2251 -0.0000 -7.3903 -0.0000 -8.9070 3.3556 -2.0882 -0.0000 0.0000 -0.0000 -0.0000 0.0000 -0.0000 -0.4716 -8.6954 -21.5224 -50.0133 -6.5721 34.7916 -0.0000 7.6222 0.0000 5.0653 1.4128 -13.8917 -0.0000 0.0000 -0.0000 -0.0000 0.0000 -0.0000
 -24.2163 32.8882 -3.2172 5.5460 -9.1535 -0.5815 -1.2573 26.2337 4.0699 4.3309 -0.0000 0.0000 -10.2845 -11.5136 1.7341 -7.8536 0.0000 0.0000 -3.0463 8.0283 -5.2334 3.9445 -0.0000 -0.0000 -9.5809 10.3022 2.0583 -9.4063 0.0000 -0.0000 -4.3050 -1.6381 -10.7082 -0.5189 -1.5931 12.8861 -0.2857 -15.2737 3.9748 -25.7485 20.4887 19.7162 -6.1086 29.2625 21.9935 -20.9636 -11.0801 -24.0882 -0.0000 -7.4396 -0.0000 -8.9287 3.2919 -1.9309 -0.0000 0.0000 -0.0000 -0.0000 0.0000 -0.0000 -0.3680 -8.6478 -21.4457 -49.8555 -6.2995 34.6987 -0.0000 7.7302 0.0000 5.1169 1.3717 -13.8671 -0.0000 -0.0000 0.0000 -0.0000 -0.0000 0.0000
 -24.0448 32.8814 -3.2218 5.4650 -8.8542 -0.5409 -1.2491 25.8873 3.7434 4.6589 0.0000 -0.0000 -10.5256 -11.5675 1.8331 -7.8971 0.0000 -0.0000 -3.1961 7.8121 -5.6060 4.5135 -0.0000 0.0000 -9.8992 10.2797 2.3221 -9.4235 0.0000 -0.0000 -4.4321 -1.6120 -10.6650 -0.4109 -1.6032 12.6880 -0.0690 -15.6173 3.9299 -25.9498 21.2431 20.1672 -5.9590 29.0738 21.9071 -20.5936 -11.2895 -24.0240 -0.0000 -7.6982 -0.0000 -9.2752 2.9924 -1.5738 -0.0000 0.0000 -0.0000 -0.0000 0.0000 -0.0000 -0.1136 -8.5456 -21.2294 -49.5470 -5.9354 34.8580 -0.0000 8.2184 0.0000 4.9873 1.3765 -13.9201 -0.0000 0.0000 -0.0000 -0.0000 0.0000 -0.0000
 -23.8162 32.8575 -3.2408 5.3010 -8.0352 -0.2828 -1.2692 24.5242 3.1328 5.3777 0.0000 -0.0000 -10.9231 -11.3101 1.9048 -7.9087 0.0000 -0.0000 -4.2233 7.3434 -6.1828 7.3154 -0.0000 0.0000 -11.4364 10.0411 2.3671 -9.4986 0.0000 0.0000 -4.6225 -1.6361 -10.7096 -0.1157 -1.6737 12.2440 0.5759 -16.6591 4.0708 -26.5875 22.7552 20.8299 -5.3680 28.7109 20.8828 -20.7039 -11.0212 -25.0048 -0.0000 -9.7657 -0.0000 -11.2575 2.5975 -1.0136 -0.0000 0.0000 -0.0000 -0.0000 0.0000 -0.0000 0.5114 -8.2369 -20.1626 -47.5356 -5.9002 35.4198 -0.0000 11.4816 0.0000 3.7355 2.0471 -14.0140 -0.0000 0.0000 -0.0000 -0.0000 0.0000 -0.0000
 -23.5694 32.7933 -3.3118 5.1951 -6.0407 0.3112 -1.5010 22.2992 2.1891 6.2253 0.0000 0.0000 -11.3310 -11.4271 1.5501 -8.1146 0.0000 -0.0000 -7.0439 7.4930 -6.9253 14.3853 -0.0000 0.0000 -14.8474 8.5779 1.5849 -9.6704 0.0000 0.0000 -4.5182 -1.9410 -10.9696 -0.0088 -1.9674 11.4584 0.9001 -18.8196 4.1807 -26.8818 25.0242 21.9779 -4.4080 28.4971 19.3927 -21.4994 -9.8167 -29.6654 -0.0001 -14.8959 -0.0000 -15.7846 1.1634 -1.0526 -0.0000 0.0000 -0.0000 -0.0000 0.0000 -0.0000 1.4944 -8.5376 -18.4465 -43.3561 -6.0648 38.2399 -0.0001 16.3908 0.0000 1.1565 3.8744 -14.1752 -0.0000 -0.0000 0.0000 -0.0000 -0.0000 0.0000
 -23.3987 32.7069 -3.3666 5.0186 -3.4281 0.9644 -1.6836 21.4343 1.3746 6.8573 0.0000 0.0000 -11.8163 -13.3311 0.3278 -8.0905 0.0000 -0.0000 -10.6707 8.8748 -7.4715 23.5309 -0.0000 0.0000 -17.5719 7.5193 0.5018 -9.6085 0.0000 -0.0000 -4.3164 -2.3417 -11.2252 0.1991 -2.3193 10.6698 0.9417 -21.0842 4.1492 -27.3296 27.3822 22.5663 -2.9843 28.9629 17.1708 -18.2209 -10.7386 -37.1362 -0.0001 -23.1569 -0.0000 -18.3349 0.1839 -1.5708 -0.0000 0.0000 -0.0000 -0.0000 0.0000 -0.0000 2.3503 -9.3127 -16.9370 -37.7254 -5.6095 44.5403 -0.0001 19.6862 0.0000 -1.0906 4.5931 -12.3707 -0.0000 0.0000 -0.0000 -0.0000 0.0000 -0.0000
 -23.3745 32.7469 -3.3542 5.3900 -0.1866 0.4735 -2.5120 19.5481 1.7780 6.7933 -0.0000 0.0000 -11.3975 -14.5770 0.6469 -8.1906 0.0000 0.0000 -12.6790 12.3349 -6.8173 25.6637 -0.0000 0.0000 -19.7168 10.0105 1.3551 -9.4080 -0.0000 0.0000 -4.4286 -2.3935 -11.0402 0.2640 -2.4104 10.8196 0.6368 -23.4073 4.2434 -27.7616 29.5891 22.2514 -1.5567 29.4735 14.4814 -14.3342 -14.8770 -48.8120 -0.0001 -29.3317 -0.0000 -19.2703 0.1995 -2.3863 -0.0000 0.0000 -0.0000 -0.0000 0.0000 -0.0000 3.7322 -9.7919 -14.9653 -28.0748 -2.2731 51.7427 -0.0001 22.3779 0.0000 -0.4742 4.2472 -11.2032 -0.0000 0.0000 -0.0000 -0.0000 0.0000 -0.0000
 -23.5513 32.8068 -3.2803 5.9274 3.9770 -0.8864 -3.8520 16.9483 3.3600 6.8067 0.0000 0.0000 -11.1071 -15.9925 0.4872 -8.3813 0.0000 0.0000 -12.8585 20.0304 -4.8227 21.3119 -0.0000 0.0000 -19.6874 9.9033 1.0459 -9.5322 0.0000 0.0000 -4.5375 -2.4614 -10.7845 0.4553 -2.5185 11.3625 0.2246 -25.4823 4.4442 -28.5649 31.6880 22.4282 0.1186 29.0429 10.9769 -9.9963 -24.2021 -59.7952 -0.0001 -30.1239 -0.0000 -20.4516 1.3119 -5.9285 -0.0000 -0.0000 0.0000 -0.0000 -0.0000 0.0000 5.2312 -9.5204 -12.7248 -18.4472 4.1026 59.8692 -0.0001 22.8004 0.0000 -0.3034 4.2233 -9.6369 -0.0000 -0.0000 0.0000 -0.0000 -0.0000 0.0000
 -23.8893 32.8239 -3.1705 6.2382 8.5434 -1.9591 -5.1382 14.0772 4.9100 7.4428 -0.0000 0.0000 -11.2022 -17.5148 -0.0771 -8.3713 0.0000 0.0000 -13.5041 27.5297 -2.8135 17.6729 0.0000 0.0000 -19.6364 13.4427 2.7775 -9.6961 0.0000 0.0000 -4.4660 -2.3133 -10.6822 1.3461 -2.3218 11.4441 -0.6311 -26.7508 4.3964 -29.4524 33.3145 22.6956 2.2310 27.8975 7.0395 -11.1640 -32.3699 -71.2481 -0.0001 -26.5638 -0.0000 -16.1517 2.7616 -7.0993 -0.0000 0.0000 -0.0000 -0.0000 0.0000 -0.0000 6.5740 -8.7466 -10.9930 -11.6705 15.1438 68.0481 -0.0001 21.7743 0.0000 1.2043 3.0309 -7.6209 -0.0000 0.0000 -0.0000 -0.0000 0.0000 -0.0000
 -24.3506 32.7955 -2.9603 6.3485 13.9581 -2.5016 -6.1948 10.7017 6.0805 8.4396 -0.0000 0.0000 -11.5501 -19.4384 -0.9011 -7.8638 0.0000 0.0000 -14.6004 29.4147 -0.6059 18.3207 -0.0000 0.0000 -17.1601 15.2502 2.3476 -9.6087 -0.0000 -0.0000 -4.5698 -2.1292 -10.5093 2.4860 -2.1175 11.0046 -1.1113 -26.4733 4.1879 -27.9194 37.3412 20.9806 3.7945 26.5208 3.5688 -15.1751 -35.4945 -81.8941 -0.0001 -21.7334 -0.0000 -15.3847 2.9958 -6.3552 -0.0000 0.0000 -0.0000 -0.0000 0.0000 -0.0000 7.4291 -7.5828 -10.3765 -9.9409 24.6571 76.4710 -0.0001 21.9203 0.0000 2.0006 2.7575 -6.5022 -0.0000 0.0000 -0.0000 -0.0000 0.0000 -0.0000
 -24.8618 32.7452 -2.6764 6.7168 21.1558 -2.8601 -7.3671 5.9614 6.7697 9.2536 -0.0000 0.0000 -11.6717 -21.6576 -1.5168 -8.3966 0.0000 0.0000 -13.3093 25.3762 -0.6337 17.7597 -0.0000 0.0000 -15.4269 12.3512 0.5170 -9.6325 -0.0000 0.0000 -4.7063 -2.1317 -10.2191 3.0027 -2.1372 10.5864 -1.3823 -24.7909 3.7883 -19.9547 43.8769 15.1260 4.5386 24.1988 1.1221 -17.0299 -42.4219 -88.0593 -0.0001 -19.7131 -0.0000 -13.8837 3.5230 -6.0326 -0.0000 0.0000 -0.0000 -0.0000 0.0000 -0.0000 8.0909 -6.4083 -9.6643 -11.3533 27.2634 83.5403 -0.0001 22.4064 0.0000 -1.5792 5.1146 -7.7648 -0.0000 -0.0000 0.0000 -0.0000 -0.0000 0.0000
 -25.4758 32.7739 -2.4297 7.3768 28.0662 -4.2958 -8.8658 1.5452 8.3028 9.6972 -0.0000 0.0000 -11.2836 -23.8884 -1.5470 -9.3974 0.0000 -0.0000 -12.2310 19.5274 -0.1115 15.7170 0.0000 0.0000 -14.3806 11.3586 0.8272 -9.6189 -0.0000 -0.0000 -4.6946 -1.7641 -9.6951 3.7119 -1.6710 11.2621 -1.1869 -23.7248 4.1097 -8.4662 49.7571 6.8381 4.3879 22.9276 0.1059 -18.6248 -54.6859 -91.3026 -0.0001 -22.4616 -0.0000 -11.7430 4.1193 -6.1993 -0.0000 0.0000 -0.0000 -0.0000 0.0000 -0.0000 8.3367 -4.5842 -9.4417 -12.5269 28.3894 87.6672 -0.0001 23.2456 0.0000 -4.4502 6.2846 -7.9214 -0.0000 -0.0000 0.0000 -0.0000 -0.0000 0.0000
 -26.1875 32.7670 -2.2358 9.2707 35.2298 -6.8748 -12.0891 -3.5362 9.9004 11.8153 -0.0000 0.0000 -12.1445 -25.5671 -1.7082 -9.7912 0.0000 -0.0000 -12.3032 15.6136 1.4627 13.6073 0.0000 0.0000 -13.0628 7.8962 -0.9027 -9.3993 0.0000 0.0000 -4.5846 -1.7711 -9.5807 4.2413 -1.4935 12.5816 -0.7001 -23.9034 4.1211 -2.3170 52.4495 3.2383 3.9089 22.3528 0.3460 -18.6939 -62.0023 -92.1380 -0.0001 -28.6907 -0.0000 -8.5009 4.2447 -4.8446 -0.0000 -0.0000 0.0000 -0.0000 -0.0000 0.0000 8.7228 -3.4805 -8.8469 -14.1172 31.5026 88.7531 -0.0001 23.8718 0.0000 -5.1116 6.7280 -7.9097 -0.0000 0.0000 -0.0000 -0.0000 0.0000 -0.0000
 -26.7608 32.7602 -2.0987 11.2516 40.4583 -9.2407 -16.1621 -2.7123 10.4972 16.5485 -0.0000 0.0000 -13.3899 -20.9717 -2.0482 -9.8681 -0.0000 0.0000 -12.4403 11.1958 2.2930 11.6678 0.0000 -0.0000 -11.9748 7.0418 -1.0510 -9.1998 -0.0000 0.0000 -4.5736 -1.3145 -9.5059 4.7066 -0.9103 13.5971 -0.4209 -25.0259 4.2270 1.7018 53.4911 0.7567 3.9977 22.5768 0.5669 -19.5795 -61.6723 -92.7822 -0.0001 -31.4592 -0.0000 -6.7941 3.7891 -3.4679 -0.0000 0.0000 -0.0000 -0.0000 0.0000 -0.0000 8.9435 -2.4450 -8.7921 -14.7503 33.4421 88.5077 -0.0001 24.2585 0.0000 -4.7764 6.6984 -7.7752 -0.0000 -0.0000 0.0000 -0.0000 -0.0000 0.0000
